<?xml version="1.0" standalone="no"?>
<!DOCTYPE svg PUBLIC "-//W3C//DTD SVG 20010904//EN"
 "http://www.w3.org/TR/2001/REC-SVG-20010904/DTD/svg10.dtd">
<svg version="1.0" xmlns="http://www.w3.org/2000/svg"
 width="80.000000pt" height="80.000000pt" viewBox="0 0 80.000000 80.000000"
 preserveAspectRatio="xMidYMid meet">

<g transform="translate(0.000000,80.000000) scale(0.100000,-0.100000)"
fill="#000000" stroke="none">
<path d="M297 572 c-37 -41 -1 -128 67 -164 11 -6 -1 10 -27 34 -44 41 -48 49
-45 84 2 29 9 42 28 51 16 8 19 13 9 13 -9 0 -23 -8 -32 -18z"/>
<path d="M373 575 c26 -13 31 -13 50 0 24 17 15 20 -13 5 -13 -7 -21 -7 -25 0
-3 5 -14 10 -23 10 -11 0 -7 -6 11 -15z"/>
<path d="M448 568 c-2 -17 -11 -24 -31 -26 -34 -4 -45 -27 -24 -50 12 -13 15
-28 10 -55 -8 -51 14 -49 72 6 37 36 45 50 45 79 0 56 -64 97 -72 46z m44 -5
c30 -27 22 -61 -27 -111 -25 -25 -48 -42 -51 -39 -10 10 7 48 19 44 16 -6 47
11 47 25 0 7 -13 9 -35 5 -28 -5 -37 -2 -45 13 -16 31 31 39 59 11 26 -26 46
-19 31 10 -6 10 -15 19 -20 19 -6 0 -10 9 -10 20 0 24 8 25 32 3z"/>
<path d="M580 400 c-12 -8 -11 -10 8 -10 12 0 22 5 22 10 0 13 -11 13 -30 0z"/>
<path d="M160 354 c0 -25 5 -54 10 -64 14 -26 47 -42 70 -35 29 9 24 26 -5 19
-33 -8 -55 11 -55 47 0 26 4 29 30 29 17 0 30 5 30 10 0 6 -13 10 -30 10 -20
0 -30 5 -30 15 0 8 -4 15 -10 15 -5 0 -10 -21 -10 -46z"/>
<path d="M292 354 c-25 -17 -29 -51 -8 -79 10 -14 27 -20 55 -20 l41 -1 0 43
c0 32 -5 46 -22 57 -12 9 -27 16 -33 16 -6 0 -21 -7 -33 -16z m66 -20 c20 -36
-10 -71 -49 -59 -19 6 -27 54 -12 68 12 13 52 7 61 -9z"/>
<path d="M402 324 c3 -41 7 -51 30 -64 26 -14 29 -13 47 5 21 21 35 92 20 101
-5 3 -9 -13 -9 -34 0 -45 -19 -67 -50 -57 -21 7 -23 13 -20 57 1 14 -4 29 -10
33 -8 5 -10 -8 -8 -41z"/>
<path d="M540 350 c-23 -23 -26 -49 -7 -73 12 -17 31 -21 77 -19 24 2 26 5 22
40 -8 67 -52 92 -92 52z m70 -19 c13 -25 4 -48 -21 -56 -38 -12 -65 35 -37 63
18 18 46 14 58 -7z"/>
</g>
</svg>
